<svg xmlns="http://www.w3.org/2000/svg" xmlns:xlink="http://www.w3.org/1999/xlink" width="500" zoomAndPan="magnify" viewBox="0 0 375 374.999991" height="500" preserveAspectRatio="xMidYMid meet" version="1.0"><defs><clipPath id="e6b6bea21a"><path d="M 29.855469 37.5 L 344.855469 37.5 L 344.855469 352.5 L 29.855469 352.5 Z M 29.855469 37.5 " clip-rule="nonzero"/></clipPath><clipPath id="b8cc22a043"><path d="M 344.855469 195 C 344.855469 197.578125 344.792969 200.152344 344.667969 202.726562 C 344.539062 205.300781 344.351562 207.871094 344.097656 210.4375 C 343.847656 213.003906 343.53125 215.558594 343.152344 218.109375 C 342.773438 220.660156 342.332031 223.199219 341.832031 225.726562 C 341.328125 228.253906 340.761719 230.769531 340.136719 233.269531 C 339.511719 235.769531 338.824219 238.253906 338.074219 240.71875 C 337.328125 243.1875 336.519531 245.632812 335.648438 248.058594 C 334.78125 250.488281 333.855469 252.890625 332.867188 255.273438 C 331.882812 257.652344 330.835938 260.007812 329.734375 262.339844 C 328.632812 264.671875 327.476562 266.972656 326.257812 269.246094 C 325.042969 271.519531 323.773438 273.761719 322.449219 275.972656 C 321.125 278.183594 319.746094 280.359375 318.3125 282.503906 C 316.882812 284.644531 315.398438 286.753906 313.863281 288.824219 C 312.328125 290.894531 310.742188 292.925781 309.105469 294.917969 C 307.472656 296.910156 305.789062 298.859375 304.058594 300.769531 C 302.324219 302.679688 300.550781 304.546875 298.726562 306.371094 C 296.902344 308.191406 295.039062 309.96875 293.128906 311.699219 C 291.21875 313.429688 289.265625 315.113281 287.273438 316.75 C 285.28125 318.382812 283.25 319.96875 281.179688 321.503906 C 279.109375 323.039062 277.003906 324.523438 274.859375 325.957031 C 272.714844 327.386719 270.539062 328.765625 268.328125 330.09375 C 266.117188 331.417969 263.875 332.6875 261.601562 333.902344 C 259.328125 335.117188 257.027344 336.277344 254.695312 337.378906 C 252.367188 338.480469 250.011719 339.523438 247.628906 340.511719 C 245.25 341.496094 242.84375 342.425781 240.417969 343.292969 C 237.988281 344.160156 235.542969 344.96875 233.078125 345.71875 C 230.609375 346.464844 228.125 347.152344 225.625 347.78125 C 223.125 348.40625 220.613281 348.972656 218.082031 349.472656 C 215.554688 349.976562 213.015625 350.417969 210.46875 350.796875 C 207.917969 351.171875 205.359375 351.488281 202.792969 351.742188 C 200.230469 351.996094 197.660156 352.183594 195.085938 352.308594 C 192.511719 352.4375 189.933594 352.5 187.355469 352.5 C 184.78125 352.5 182.203125 352.4375 179.628906 352.308594 C 177.054688 352.183594 174.484375 351.996094 171.917969 351.742188 C 169.355469 351.488281 166.796875 351.171875 164.246094 350.796875 C 161.695312 350.417969 159.160156 349.976562 156.628906 349.472656 C 154.101562 348.972656 151.589844 348.40625 149.085938 347.78125 C 146.585938 347.152344 144.105469 346.464844 141.636719 345.71875 C 139.171875 344.96875 136.722656 344.160156 134.296875 343.292969 C 131.871094 342.425781 129.464844 341.496094 127.085938 340.511719 C 124.703125 339.523438 122.347656 338.480469 120.015625 337.378906 C 117.6875 336.277344 115.386719 335.117188 113.113281 333.902344 C 110.839844 332.6875 108.597656 331.417969 106.386719 330.09375 C 104.175781 328.765625 101.996094 327.386719 99.855469 325.957031 C 97.710938 324.523438 95.605469 323.039062 93.535156 321.503906 C 91.464844 319.96875 89.433594 318.382812 87.441406 316.75 C 85.449219 315.113281 83.496094 313.429688 81.585938 311.699219 C 79.675781 309.96875 77.808594 308.191406 75.988281 306.371094 C 74.164062 304.546875 72.386719 302.679688 70.65625 300.769531 C 68.925781 298.859375 67.242188 296.910156 65.609375 294.917969 C 63.972656 292.925781 62.386719 290.894531 60.851562 288.824219 C 59.316406 286.753906 57.832031 284.644531 56.402344 282.503906 C 54.96875 280.359375 53.589844 278.183594 52.265625 275.972656 C 50.941406 273.761719 49.667969 271.519531 48.453125 269.246094 C 47.238281 266.972656 46.082031 264.671875 44.980469 262.339844 C 43.875 260.007812 42.832031 257.652344 41.847656 255.273438 C 40.859375 252.890625 39.933594 250.488281 39.0625 248.058594 C 38.195312 245.632812 37.386719 243.1875 36.640625 240.71875 C 35.890625 238.253906 35.203125 235.769531 34.578125 233.269531 C 33.949219 230.769531 33.386719 228.253906 32.882812 225.726562 C 32.378906 223.199219 31.941406 220.660156 31.5625 218.109375 C 31.183594 215.558594 30.867188 213.003906 30.617188 210.4375 C 30.363281 207.871094 30.171875 205.300781 30.046875 202.726562 C 29.921875 200.152344 29.855469 197.578125 29.855469 195 C 29.855469 192.421875 29.921875 189.847656 30.046875 187.273438 C 30.171875 184.699219 30.363281 182.128906 30.617188 179.5625 C 30.867188 176.996094 31.183594 174.441406 31.5625 171.890625 C 31.941406 169.339844 32.378906 166.800781 32.882812 164.273438 C 33.386719 161.746094 33.949219 159.230469 34.578125 156.730469 C 35.203125 154.230469 35.890625 151.746094 36.640625 149.28125 C 37.386719 146.8125 38.195312 144.367188 39.0625 141.941406 C 39.933594 139.511719 40.859375 137.109375 41.847656 134.726562 C 42.832031 132.347656 43.875 129.988281 44.980469 127.660156 C 46.082031 125.328125 47.238281 123.027344 48.453125 120.753906 C 49.667969 118.480469 50.941406 116.238281 52.265625 114.027344 C 53.589844 111.816406 54.96875 109.640625 56.402344 107.496094 C 57.832031 105.355469 59.316406 103.246094 60.851562 101.175781 C 62.386719 99.105469 63.972656 97.074219 65.609375 95.082031 C 67.242188 93.089844 68.925781 91.140625 70.65625 89.230469 C 72.386719 87.320312 74.164062 85.453125 75.988281 83.628906 C 77.808594 81.808594 79.675781 80.03125 81.585938 78.300781 C 83.496094 76.570312 85.449219 74.886719 87.441406 73.25 C 89.433594 71.617188 91.464844 70.03125 93.535156 68.496094 C 95.605469 66.960938 97.710938 65.476562 99.855469 64.042969 C 101.996094 62.613281 104.175781 61.234375 106.386719 59.90625 C 108.597656 58.582031 110.839844 57.3125 113.113281 56.097656 C 115.386719 54.882812 117.6875 53.722656 120.015625 52.621094 C 122.347656 51.519531 124.703125 50.476562 127.085938 49.488281 C 129.464844 48.503906 131.871094 47.574219 134.296875 46.707031 C 136.722656 45.839844 139.171875 45.03125 141.636719 44.28125 C 144.105469 43.535156 146.585938 42.847656 149.085938 42.21875 C 151.589844 41.59375 154.101562 41.027344 156.628906 40.527344 C 159.160156 40.023438 161.695312 39.582031 164.246094 39.203125 C 166.796875 38.828125 169.355469 38.511719 171.917969 38.257812 C 174.484375 38.003906 177.054688 37.816406 179.628906 37.691406 C 182.203125 37.5625 184.78125 37.5 187.355469 37.5 C 189.933594 37.5 192.511719 37.5625 195.085938 37.691406 C 197.660156 37.816406 200.230469 38.003906 202.792969 38.257812 C 205.359375 38.511719 207.917969 38.828125 210.46875 39.203125 C 213.015625 39.582031 215.554688 40.023438 218.082031 40.527344 C 220.613281 41.027344 223.125 41.59375 225.625 42.21875 C 228.125 42.847656 230.609375 43.535156 233.078125 44.28125 C 235.542969 45.03125 237.992188 45.839844 240.417969 46.707031 C 242.84375 47.574219 245.25 48.503906 247.628906 49.488281 C 250.011719 50.476562 252.367188 51.519531 254.695312 52.621094 C 257.027344 53.722656 259.328125 54.882812 261.601562 56.097656 C 263.875 57.3125 266.117188 58.582031 268.328125 59.90625 C 270.539062 61.234375 272.714844 62.613281 274.859375 64.042969 C 277.003906 65.476562 279.109375 66.960938 281.179688 68.496094 C 283.25 70.03125 285.28125 71.617188 287.273438 73.25 C 289.265625 74.886719 291.21875 76.570312 293.128906 78.300781 C 295.039062 80.03125 296.902344 81.808594 298.726562 83.628906 C 300.550781 85.453125 302.324219 87.320312 304.058594 89.230469 C 305.789062 91.140625 307.472656 93.089844 309.105469 95.082031 C 310.742188 97.074219 312.328125 99.105469 313.863281 101.175781 C 315.398438 103.246094 316.882812 105.355469 318.3125 107.496094 C 319.746094 109.640625 321.125 111.816406 322.449219 114.027344 C 323.773438 116.238281 325.042969 118.480469 326.257812 120.753906 C 327.476562 123.027344 328.632812 125.328125 329.734375 127.660156 C 330.835938 129.988281 331.882812 132.347656 332.867188 134.726562 C 333.855469 137.109375 334.78125 139.511719 335.648438 141.941406 C 336.519531 144.367188 337.328125 146.8125 338.074219 149.28125 C 338.824219 151.746094 339.511719 154.230469 340.136719 156.730469 C 340.761719 159.230469 341.328125 161.746094 341.832031 164.273438 C 342.332031 166.800781 342.773438 169.339844 343.152344 171.890625 C 343.53125 174.441406 343.847656 176.996094 344.097656 179.5625 C 344.351562 182.128906 344.539062 184.699219 344.667969 187.273438 C 344.792969 189.847656 344.855469 192.421875 344.855469 195 Z M 344.855469 195 " clip-rule="nonzero"/></clipPath><linearGradient x1="1333.32996" gradientTransform="matrix(0.118155, 0, 0, 0.118155, 29.857041, 37.499999)" y1="-0.0000132242" x2="1333.32996" gradientUnits="userSpaceOnUse" y2="2665.999822" id="78f424f0de"><stop stop-opacity="1" stop-color="rgb(39.99939%, 39.99939%, 79.998779%)" offset="0"/><stop stop-opacity="1" stop-color="rgb(40.458679%, 39.692688%, 80.151367%)" offset="0.00390625"/><stop stop-opacity="1" stop-color="rgb(40.917969%, 39.385986%, 80.305481%)" offset="0.0078125"/><stop stop-opacity="1" stop-color="rgb(41.377258%, 39.079285%, 80.458069%)" offset="0.0117188"/><stop stop-opacity="1" stop-color="rgb(41.836548%, 38.774109%, 80.612183%)" offset="0.015625"/><stop stop-opacity="1" stop-color="rgb(42.295837%, 38.467407%, 80.764771%)" offset="0.0195312"/><stop stop-opacity="1" stop-color="rgb(42.756653%, 38.160706%, 80.918884%)" offset="0.0234375"/><stop stop-opacity="1" stop-color="rgb(43.215942%, 37.854004%, 81.071472%)" offset="0.0273438"/><stop stop-opacity="1" stop-color="rgb(43.675232%, 37.548828%, 81.22406%)" offset="0.03125"/><stop stop-opacity="1" stop-color="rgb(44.134521%, 37.242126%, 81.376648%)" offset="0.0351562"/><stop stop-opacity="1" stop-color="rgb(44.593811%, 36.936951%, 81.530762%)" offset="0.0390625"/><stop stop-opacity="1" stop-color="rgb(45.053101%, 36.630249%, 81.68335%)" offset="0.0429688"/><stop stop-opacity="1" stop-color="rgb(45.51239%, 36.323547%, 81.837463%)" offset="0.046875"/><stop stop-opacity="1" stop-color="rgb(45.97168%, 36.016846%, 81.990051%)" offset="0.0507812"/><stop stop-opacity="1" stop-color="rgb(46.430969%, 35.71167%, 82.142639%)" offset="0.0546875"/><stop stop-opacity="1" stop-color="rgb(46.890259%, 35.404968%, 82.295227%)" offset="0.0585938"/><stop stop-opacity="1" stop-color="rgb(47.351074%, 35.098267%, 82.449341%)" offset="0.0625"/><stop stop-opacity="1" stop-color="rgb(47.810364%, 34.791565%, 82.601929%)" offset="0.0664062"/><stop stop-opacity="1" stop-color="rgb(48.269653%, 34.486389%, 82.756042%)" offset="0.0703125"/><stop stop-opacity="1" stop-color="rgb(48.728943%, 34.179688%, 82.90863%)" offset="0.0742188"/><stop stop-opacity="1" stop-color="rgb(49.188232%, 33.872986%, 83.062744%)" offset="0.078125"/><stop stop-opacity="1" stop-color="rgb(49.647522%, 33.566284%, 83.215332%)" offset="0.0820313"/><stop stop-opacity="1" stop-color="rgb(50.106812%, 33.261108%, 83.36792%)" offset="0.0859375"/><stop stop-opacity="1" stop-color="rgb(50.566101%, 32.954407%, 83.520508%)" offset="0.0898438"/><stop stop-opacity="1" stop-color="rgb(51.025391%, 32.647705%, 83.674622%)" offset="0.09375"/><stop stop-opacity="1" stop-color="rgb(51.48468%, 32.341003%, 83.827209%)" offset="0.0976563"/><stop stop-opacity="1" stop-color="rgb(51.945496%, 32.035828%, 83.981323%)" offset="0.101563"/><stop stop-opacity="1" stop-color="rgb(52.404785%, 31.729126%, 84.133911%)" offset="0.105469"/><stop stop-opacity="1" stop-color="rgb(52.864075%, 31.422424%, 84.288025%)" offset="0.109375"/><stop stop-opacity="1" stop-color="rgb(53.323364%, 31.115723%, 84.440613%)" offset="0.113281"/><stop stop-opacity="1" stop-color="rgb(53.782654%, 30.810547%, 84.593201%)" offset="0.117188"/><stop stop-opacity="1" stop-color="rgb(54.241943%, 30.503845%, 84.745789%)" offset="0.121094"/><stop stop-opacity="1" stop-color="rgb(54.701233%, 30.197144%, 84.899902%)" offset="0.125"/><stop stop-opacity="1" stop-color="rgb(55.160522%, 29.890442%, 85.05249%)" offset="0.128906"/><stop stop-opacity="1" stop-color="rgb(55.619812%, 29.585266%, 85.206604%)" offset="0.132812"/><stop stop-opacity="1" stop-color="rgb(56.079102%, 29.278564%, 85.359192%)" offset="0.136719"/><stop stop-opacity="1" stop-color="rgb(56.539917%, 28.971863%, 85.513306%)" offset="0.140625"/><stop stop-opacity="1" stop-color="rgb(56.999207%, 28.665161%, 85.665894%)" offset="0.144531"/><stop stop-opacity="1" stop-color="rgb(57.458496%, 28.359985%, 85.818481%)" offset="0.148438"/><stop stop-opacity="1" stop-color="rgb(57.917786%, 28.053284%, 85.971069%)" offset="0.152344"/><stop stop-opacity="1" stop-color="rgb(58.377075%, 27.748108%, 86.125183%)" offset="0.15625"/><stop stop-opacity="1" stop-color="rgb(58.836365%, 27.441406%, 86.277771%)" offset="0.160156"/><stop stop-opacity="1" stop-color="rgb(59.295654%, 27.134705%, 86.431885%)" offset="0.164062"/><stop stop-opacity="1" stop-color="rgb(59.754944%, 26.828003%, 86.584473%)" offset="0.167969"/><stop stop-opacity="1" stop-color="rgb(60.214233%, 26.522827%, 86.737061%)" offset="0.171875"/><stop stop-opacity="1" stop-color="rgb(60.673523%, 26.216125%, 86.889648%)" offset="0.175781"/><stop stop-opacity="1" stop-color="rgb(61.134338%, 25.909424%, 87.043762%)" offset="0.179688"/><stop stop-opacity="1" stop-color="rgb(61.593628%, 25.602722%, 87.19635%)" offset="0.183594"/><stop stop-opacity="1" stop-color="rgb(62.052917%, 25.297546%, 87.350464%)" offset="0.1875"/><stop stop-opacity="1" stop-color="rgb(62.512207%, 24.990845%, 87.503052%)" offset="0.191406"/><stop stop-opacity="1" stop-color="rgb(62.971497%, 24.684143%, 87.657166%)" offset="0.195312"/><stop stop-opacity="1" stop-color="rgb(63.430786%, 24.377441%, 87.809753%)" offset="0.199219"/><stop stop-opacity="1" stop-color="rgb(63.890076%, 24.072266%, 87.962341%)" offset="0.203125"/><stop stop-opacity="1" stop-color="rgb(64.349365%, 23.765564%, 88.114929%)" offset="0.207031"/><stop stop-opacity="1" stop-color="rgb(64.808655%, 23.458862%, 88.269043%)" offset="0.210938"/><stop stop-opacity="1" stop-color="rgb(65.267944%, 23.152161%, 88.421631%)" offset="0.214844"/><stop stop-opacity="1" stop-color="rgb(65.72876%, 22.846985%, 88.575745%)" offset="0.21875"/><stop stop-opacity="1" stop-color="rgb(66.188049%, 22.540283%, 88.728333%)" offset="0.222656"/><stop stop-opacity="1" stop-color="rgb(66.647339%, 22.233582%, 88.882446%)" offset="0.226562"/><stop stop-opacity="1" stop-color="rgb(67.106628%, 21.92688%, 89.035034%)" offset="0.230469"/><stop stop-opacity="1" stop-color="rgb(67.565918%, 21.621704%, 89.187622%)" offset="0.234375"/><stop stop-opacity="1" stop-color="rgb(68.025208%, 21.315002%, 89.34021%)" offset="0.238281"/><stop stop-opacity="1" stop-color="rgb(68.484497%, 21.008301%, 89.494324%)" offset="0.242188"/><stop stop-opacity="1" stop-color="rgb(68.943787%, 20.701599%, 89.646912%)" offset="0.246094"/><stop stop-opacity="1" stop-color="rgb(69.403076%, 20.396423%, 89.801025%)" offset="0.25"/><stop stop-opacity="1" stop-color="rgb(69.862366%, 20.089722%, 89.953613%)" offset="0.253906"/><stop stop-opacity="1" stop-color="rgb(70.323181%, 19.78302%, 90.107727%)" offset="0.257812"/><stop stop-opacity="1" stop-color="rgb(70.782471%, 19.476318%, 90.260315%)" offset="0.261719"/><stop stop-opacity="1" stop-color="rgb(71.24176%, 19.171143%, 90.412903%)" offset="0.265625"/><stop stop-opacity="1" stop-color="rgb(71.70105%, 18.864441%, 90.565491%)" offset="0.269531"/><stop stop-opacity="1" stop-color="rgb(72.160339%, 18.557739%, 90.719604%)" offset="0.273438"/><stop stop-opacity="1" stop-color="rgb(72.619629%, 18.251038%, 90.872192%)" offset="0.277344"/><stop stop-opacity="1" stop-color="rgb(73.078918%, 17.945862%, 91.026306%)" offset="0.28125"/><stop stop-opacity="1" stop-color="rgb(73.538208%, 17.63916%, 91.178894%)" offset="0.285156"/><stop stop-opacity="1" stop-color="rgb(73.997498%, 17.333984%, 91.331482%)" offset="0.289062"/><stop stop-opacity="1" stop-color="rgb(74.456787%, 17.027283%, 91.48407%)" offset="0.292969"/><stop stop-opacity="1" stop-color="rgb(74.917603%, 16.720581%, 91.638184%)" offset="0.296875"/><stop stop-opacity="1" stop-color="rgb(75.376892%, 16.413879%, 91.790771%)" offset="0.300781"/><stop stop-opacity="1" stop-color="rgb(75.836182%, 16.108704%, 91.944885%)" offset="0.304688"/><stop stop-opacity="1" stop-color="rgb(76.295471%, 15.802002%, 92.097473%)" offset="0.308594"/><stop stop-opacity="1" stop-color="rgb(76.754761%, 15.4953%, 92.251587%)" offset="0.3125"/><stop stop-opacity="1" stop-color="rgb(77.21405%, 15.188599%, 92.404175%)" offset="0.316406"/><stop stop-opacity="1" stop-color="rgb(77.67334%, 14.883423%, 92.556763%)" offset="0.320312"/><stop stop-opacity="1" stop-color="rgb(78.132629%, 14.576721%, 92.709351%)" offset="0.324219"/><stop stop-opacity="1" stop-color="rgb(78.591919%, 14.27002%, 92.863464%)" offset="0.328125"/><stop stop-opacity="1" stop-color="rgb(79.051208%, 13.963318%, 93.016052%)" offset="0.332031"/><stop stop-opacity="1" stop-color="rgb(79.512024%, 13.658142%, 93.170166%)" offset="0.335938"/><stop stop-opacity="1" stop-color="rgb(79.971313%, 13.35144%, 93.322754%)" offset="0.339844"/><stop stop-opacity="1" stop-color="rgb(80.430603%, 13.044739%, 93.476868%)" offset="0.34375"/><stop stop-opacity="1" stop-color="rgb(80.889893%, 12.738037%, 93.629456%)" offset="0.347656"/><stop stop-opacity="1" stop-color="rgb(81.349182%, 12.432861%, 93.782043%)" offset="0.351562"/><stop stop-opacity="1" stop-color="rgb(81.808472%, 12.12616%, 93.934631%)" offset="0.355469"/><stop stop-opacity="1" stop-color="rgb(82.267761%, 11.819458%, 94.088745%)" offset="0.359375"/><stop stop-opacity="1" stop-color="rgb(82.727051%, 11.512756%, 94.241333%)" offset="0.363281"/><stop stop-opacity="1" stop-color="rgb(83.18634%, 11.207581%, 94.395447%)" offset="0.367188"/><stop stop-opacity="1" stop-color="rgb(83.64563%, 10.900879%, 94.548035%)" offset="0.371094"/><stop stop-opacity="1" stop-color="rgb(84.106445%, 10.594177%, 94.702148%)" offset="0.375"/><stop stop-opacity="1" stop-color="rgb(84.565735%, 10.287476%, 94.854736%)" offset="0.378906"/><stop stop-opacity="1" stop-color="rgb(85.025024%, 9.9823%, 95.007324%)" offset="0.382812"/><stop stop-opacity="1" stop-color="rgb(85.484314%, 9.675598%, 95.159912%)" offset="0.386719"/><stop stop-opacity="1" stop-color="rgb(85.943604%, 9.368896%, 95.314026%)" offset="0.390625"/><stop stop-opacity="1" stop-color="rgb(86.402893%, 9.062195%, 95.466614%)" offset="0.394531"/><stop stop-opacity="1" stop-color="rgb(86.862183%, 8.757019%, 95.620728%)" offset="0.398438"/><stop stop-opacity="1" stop-color="rgb(87.321472%, 8.450317%, 95.773315%)" offset="0.402344"/><stop stop-opacity="1" stop-color="rgb(87.782288%, 8.143616%, 95.927429%)" offset="0.40625"/><stop stop-opacity="1" stop-color="rgb(88.241577%, 7.836914%, 96.080017%)" offset="0.410156"/><stop stop-opacity="1" stop-color="rgb(88.700867%, 7.531738%, 96.232605%)" offset="0.414062"/><stop stop-opacity="1" stop-color="rgb(89.160156%, 7.225037%, 96.385193%)" offset="0.417969"/><stop stop-opacity="1" stop-color="rgb(89.619446%, 6.919861%, 96.539307%)" offset="0.421875"/><stop stop-opacity="1" stop-color="rgb(90.078735%, 6.613159%, 96.691895%)" offset="0.425781"/><stop stop-opacity="1" stop-color="rgb(90.538025%, 6.306458%, 96.846008%)" offset="0.429688"/><stop stop-opacity="1" stop-color="rgb(90.997314%, 5.999756%, 96.998596%)" offset="0.433594"/><stop stop-opacity="1" stop-color="rgb(91.456604%, 5.69458%, 97.151184%)" offset="0.4375"/><stop stop-opacity="1" stop-color="rgb(91.915894%, 5.387878%, 97.303772%)" offset="0.441406"/><stop stop-opacity="1" stop-color="rgb(92.376709%, 5.081177%, 97.457886%)" offset="0.445312"/><stop stop-opacity="1" stop-color="rgb(92.835999%, 4.774475%, 97.610474%)" offset="0.449219"/><stop stop-opacity="1" stop-color="rgb(93.295288%, 4.469299%, 97.764587%)" offset="0.453125"/><stop stop-opacity="1" stop-color="rgb(93.754578%, 4.162598%, 97.917175%)" offset="0.457031"/><stop stop-opacity="1" stop-color="rgb(94.213867%, 3.855896%, 98.071289%)" offset="0.460938"/><stop stop-opacity="1" stop-color="rgb(94.673157%, 3.549194%, 98.223877%)" offset="0.464844"/><stop stop-opacity="1" stop-color="rgb(95.132446%, 3.244019%, 98.376465%)" offset="0.46875"/><stop stop-opacity="1" stop-color="rgb(95.591736%, 2.937317%, 98.529053%)" offset="0.472656"/><stop stop-opacity="1" stop-color="rgb(96.051025%, 2.630615%, 98.683167%)" offset="0.476562"/><stop stop-opacity="1" stop-color="rgb(96.510315%, 2.323914%, 98.835754%)" offset="0.480469"/><stop stop-opacity="1" stop-color="rgb(96.97113%, 2.018738%, 98.989868%)" offset="0.484375"/><stop stop-opacity="1" stop-color="rgb(97.43042%, 1.712036%, 99.142456%)" offset="0.488281"/><stop stop-opacity="1" stop-color="rgb(97.889709%, 1.405334%, 99.29657%)" offset="0.492188"/><stop stop-opacity="1" stop-color="rgb(98.348999%, 1.098633%, 99.449158%)" offset="0.496094"/><stop stop-opacity="1" stop-color="rgb(98.808289%, 0.793457%, 99.601746%)" offset="0.5"/><stop stop-opacity="1" stop-color="rgb(99.267578%, 0.486755%, 99.754333%)" offset="0.503906"/><stop stop-opacity="1" stop-color="rgb(99.726868%, 0.180054%, 99.908447%)" offset="0.507812"/><stop stop-opacity="1" stop-color="rgb(99.862671%, 0.314331%, 99.3927%)" offset="0.511719"/><stop stop-opacity="1" stop-color="rgb(100%, 0.448608%, 98.876953%)" offset="0.515625"/><stop stop-opacity="1" stop-color="rgb(100%, 0.765991%, 98.080444%)" offset="0.519531"/><stop stop-opacity="1" stop-color="rgb(100%, 1.0849%, 97.283936%)" offset="0.523438"/><stop stop-opacity="1" stop-color="rgb(100%, 1.403809%, 96.485901%)" offset="0.527344"/><stop stop-opacity="1" stop-color="rgb(100%, 1.722717%, 95.689392%)" offset="0.53125"/><stop stop-opacity="1" stop-color="rgb(100%, 2.041626%, 94.891357%)" offset="0.535156"/><stop stop-opacity="1" stop-color="rgb(100%, 2.360535%, 94.094849%)" offset="0.539063"/><stop stop-opacity="1" stop-color="rgb(100%, 2.679443%, 93.29834%)" offset="0.542969"/><stop stop-opacity="1" stop-color="rgb(100%, 2.998352%, 92.501831%)" offset="0.546875"/><stop stop-opacity="1" stop-color="rgb(100%, 3.317261%, 91.703796%)" offset="0.550781"/><stop stop-opacity="1" stop-color="rgb(100%, 3.636169%, 90.907288%)" offset="0.554688"/><stop stop-opacity="1" stop-color="rgb(100%, 3.955078%, 90.109253%)" offset="0.558594"/><stop stop-opacity="1" stop-color="rgb(100%, 4.273987%, 89.312744%)" offset="0.5625"/><stop stop-opacity="1" stop-color="rgb(100%, 4.592896%, 88.516235%)" offset="0.566406"/><stop stop-opacity="1" stop-color="rgb(100%, 4.911804%, 87.719727%)" offset="0.570313"/><stop stop-opacity="1" stop-color="rgb(100%, 5.229187%, 86.921692%)" offset="0.574219"/><stop stop-opacity="1" stop-color="rgb(100%, 5.548096%, 86.125183%)" offset="0.578125"/><stop stop-opacity="1" stop-color="rgb(100%, 5.867004%, 85.327148%)" offset="0.582031"/><stop stop-opacity="1" stop-color="rgb(100%, 6.185913%, 84.53064%)" offset="0.585938"/><stop stop-opacity="1" stop-color="rgb(100%, 6.504822%, 83.734131%)" offset="0.589844"/><stop stop-opacity="1" stop-color="rgb(100%, 6.82373%, 82.937622%)" offset="0.59375"/><stop stop-opacity="1" stop-color="rgb(100%, 7.142639%, 82.139587%)" offset="0.597656"/><stop stop-opacity="1" stop-color="rgb(100%, 7.461548%, 81.343079%)" offset="0.601563"/><stop stop-opacity="1" stop-color="rgb(100%, 7.780457%, 80.54657%)" offset="0.605469"/><stop stop-opacity="1" stop-color="rgb(100%, 8.099365%, 79.750061%)" offset="0.609375"/><stop stop-opacity="1" stop-color="rgb(100%, 8.418274%, 78.952026%)" offset="0.613281"/><stop stop-opacity="1" stop-color="rgb(100%, 8.737183%, 78.155518%)" offset="0.617188"/><stop stop-opacity="1" stop-color="rgb(100%, 9.056091%, 77.357483%)" offset="0.621094"/><stop stop-opacity="1" stop-color="rgb(100%, 9.375%, 76.560974%)" offset="0.625"/><stop stop-opacity="1" stop-color="rgb(100%, 9.692383%, 75.764465%)" offset="0.628906"/><stop stop-opacity="1" stop-color="rgb(100%, 10.011292%, 74.967957%)" offset="0.632813"/><stop stop-opacity="1" stop-color="rgb(100%, 10.3302%, 74.169922%)" offset="0.636719"/><stop stop-opacity="1" stop-color="rgb(100%, 10.649109%, 73.373413%)" offset="0.640625"/><stop stop-opacity="1" stop-color="rgb(100%, 10.968018%, 72.575378%)" offset="0.644531"/><stop stop-opacity="1" stop-color="rgb(100%, 11.286926%, 71.77887%)" offset="0.648438"/><stop stop-opacity="1" stop-color="rgb(100%, 11.605835%, 70.982361%)" offset="0.652344"/><stop stop-opacity="1" stop-color="rgb(100%, 11.924744%, 70.185852%)" offset="0.65625"/><stop stop-opacity="1" stop-color="rgb(100%, 12.243652%, 69.387817%)" offset="0.660156"/><stop stop-opacity="1" stop-color="rgb(100%, 12.562561%, 68.591309%)" offset="0.664063"/><stop stop-opacity="1" stop-color="rgb(100%, 12.88147%, 67.793274%)" offset="0.667969"/><stop stop-opacity="1" stop-color="rgb(100%, 13.200378%, 66.996765%)" offset="0.671875"/><stop stop-opacity="1" stop-color="rgb(100%, 13.519287%, 66.200256%)" offset="0.675781"/><stop stop-opacity="1" stop-color="rgb(100%, 13.838196%, 65.403748%)" offset="0.679688"/><stop stop-opacity="1" stop-color="rgb(100%, 14.155579%, 64.605713%)" offset="0.683594"/><stop stop-opacity="1" stop-color="rgb(100%, 14.474487%, 63.809204%)" offset="0.6875"/><stop stop-opacity="1" stop-color="rgb(100%, 14.793396%, 63.012695%)" offset="0.691406"/><stop stop-opacity="1" stop-color="rgb(100%, 15.112305%, 62.216187%)" offset="0.695313"/><stop stop-opacity="1" stop-color="rgb(100%, 15.431213%, 61.418152%)" offset="0.699219"/><stop stop-opacity="1" stop-color="rgb(100%, 15.750122%, 60.621643%)" offset="0.703125"/><stop stop-opacity="1" stop-color="rgb(100%, 16.069031%, 59.823608%)" offset="0.707031"/><stop stop-opacity="1" stop-color="rgb(100%, 16.387939%, 59.0271%)" offset="0.710938"/><stop stop-opacity="1" stop-color="rgb(100%, 16.706848%, 58.230591%)" offset="0.714844"/><stop stop-opacity="1" stop-color="rgb(100%, 17.025757%, 57.434082%)" offset="0.71875"/><stop stop-opacity="1" stop-color="rgb(100%, 17.344666%, 56.636047%)" offset="0.722656"/><stop stop-opacity="1" stop-color="rgb(100%, 17.663574%, 55.839539%)" offset="0.726563"/><stop stop-opacity="1" stop-color="rgb(100%, 17.982483%, 55.041504%)" offset="0.730469"/><stop stop-opacity="1" stop-color="rgb(100%, 18.301392%, 54.244995%)" offset="0.734375"/><stop stop-opacity="1" stop-color="rgb(100%, 18.618774%, 53.448486%)" offset="0.738281"/><stop stop-opacity="1" stop-color="rgb(100%, 18.937683%, 52.651978%)" offset="0.742188"/><stop stop-opacity="1" stop-color="rgb(100%, 19.256592%, 51.853943%)" offset="0.746094"/><stop stop-opacity="1" stop-color="rgb(100%, 19.5755%, 51.057434%)" offset="0.75"/><stop stop-opacity="1" stop-color="rgb(100%, 19.894409%, 50.259399%)" offset="0.753906"/><stop stop-opacity="1" stop-color="rgb(100%, 20.213318%, 49.462891%)" offset="0.757812"/><stop stop-opacity="1" stop-color="rgb(100%, 20.532227%, 48.666382%)" offset="0.761719"/><stop stop-opacity="1" stop-color="rgb(100%, 20.851135%, 47.869873%)" offset="0.765625"/><stop stop-opacity="1" stop-color="rgb(100%, 21.170044%, 47.071838%)" offset="0.769531"/><stop stop-opacity="1" stop-color="rgb(100%, 21.488953%, 46.27533%)" offset="0.773438"/><stop stop-opacity="1" stop-color="rgb(100%, 21.807861%, 45.478821%)" offset="0.777344"/><stop stop-opacity="1" stop-color="rgb(100%, 22.12677%, 44.682312%)" offset="0.78125"/><stop stop-opacity="1" stop-color="rgb(100%, 22.445679%, 43.884277%)" offset="0.785156"/><stop stop-opacity="1" stop-color="rgb(100%, 22.764587%, 43.087769%)" offset="0.789062"/><stop stop-opacity="1" stop-color="rgb(100%, 23.08197%, 42.289734%)" offset="0.792969"/><stop stop-opacity="1" stop-color="rgb(100%, 23.400879%, 41.493225%)" offset="0.796875"/><stop stop-opacity="1" stop-color="rgb(100%, 23.719788%, 40.696716%)" offset="0.800781"/><stop stop-opacity="1" stop-color="rgb(100%, 24.038696%, 39.900208%)" offset="0.804688"/><stop stop-opacity="1" stop-color="rgb(100%, 24.357605%, 39.102173%)" offset="0.808594"/><stop stop-opacity="1" stop-color="rgb(100%, 24.676514%, 38.305664%)" offset="0.8125"/><stop stop-opacity="1" stop-color="rgb(100%, 24.995422%, 37.507629%)" offset="0.816406"/><stop stop-opacity="1" stop-color="rgb(100%, 25.314331%, 36.711121%)" offset="0.820312"/><stop stop-opacity="1" stop-color="rgb(100%, 25.63324%, 35.914612%)" offset="0.824219"/><stop stop-opacity="1" stop-color="rgb(100%, 25.952148%, 35.118103%)" offset="0.828125"/><stop stop-opacity="1" stop-color="rgb(100%, 26.271057%, 34.320068%)" offset="0.832031"/><stop stop-opacity="1" stop-color="rgb(100%, 26.589966%, 33.52356%)" offset="0.835938"/><stop stop-opacity="1" stop-color="rgb(100%, 26.908875%, 32.725525%)" offset="0.839844"/><stop stop-opacity="1" stop-color="rgb(100%, 27.227783%, 31.929016%)" offset="0.84375"/><stop stop-opacity="1" stop-color="rgb(100%, 27.545166%, 31.132507%)" offset="0.847656"/><stop stop-opacity="1" stop-color="rgb(100%, 27.864075%, 30.335999%)" offset="0.851562"/><stop stop-opacity="1" stop-color="rgb(100%, 28.182983%, 29.537964%)" offset="0.855469"/><stop stop-opacity="1" stop-color="rgb(100%, 28.501892%, 28.741455%)" offset="0.859375"/><stop stop-opacity="1" stop-color="rgb(100%, 28.820801%, 27.94342%)" offset="0.863281"/><stop stop-opacity="1" stop-color="rgb(100%, 29.139709%, 27.146912%)" offset="0.867188"/><stop stop-opacity="1" stop-color="rgb(100%, 29.458618%, 26.350403%)" offset="0.871094"/><stop stop-opacity="1" stop-color="rgb(100%, 29.777527%, 25.553894%)" offset="0.875"/><stop stop-opacity="1" stop-color="rgb(100%, 30.096436%, 24.755859%)" offset="0.878906"/><stop stop-opacity="1" stop-color="rgb(100%, 30.415344%, 23.959351%)" offset="0.882812"/><stop stop-opacity="1" stop-color="rgb(100%, 30.734253%, 23.162842%)" offset="0.886719"/><stop stop-opacity="1" stop-color="rgb(100%, 31.053162%, 22.366333%)" offset="0.890625"/><stop stop-opacity="1" stop-color="rgb(100%, 31.37207%, 21.568298%)" offset="0.894531"/><stop stop-opacity="1" stop-color="rgb(100%, 31.690979%, 20.77179%)" offset="0.898438"/><stop stop-opacity="1" stop-color="rgb(100%, 32.008362%, 19.973755%)" offset="0.902344"/><stop stop-opacity="1" stop-color="rgb(100%, 32.327271%, 19.177246%)" offset="0.90625"/><stop stop-opacity="1" stop-color="rgb(100%, 32.646179%, 18.380737%)" offset="0.910156"/><stop stop-opacity="1" stop-color="rgb(100%, 32.965088%, 17.584229%)" offset="0.914062"/><stop stop-opacity="1" stop-color="rgb(100%, 33.283997%, 16.786194%)" offset="0.917969"/><stop stop-opacity="1" stop-color="rgb(100%, 33.602905%, 15.989685%)" offset="0.921875"/><stop stop-opacity="1" stop-color="rgb(100%, 33.921814%, 15.19165%)" offset="0.925781"/><stop stop-opacity="1" stop-color="rgb(100%, 34.240723%, 14.395142%)" offset="0.929688"/><stop stop-opacity="1" stop-color="rgb(100%, 34.559631%, 13.598633%)" offset="0.933594"/><stop stop-opacity="1" stop-color="rgb(100%, 34.87854%, 12.802124%)" offset="0.9375"/><stop stop-opacity="1" stop-color="rgb(100%, 35.197449%, 12.004089%)" offset="0.941406"/><stop stop-opacity="1" stop-color="rgb(100%, 35.516357%, 11.207581%)" offset="0.945312"/><stop stop-opacity="1" stop-color="rgb(100%, 35.835266%, 10.409546%)" offset="0.949219"/><stop stop-opacity="1" stop-color="rgb(100%, 36.154175%, 9.613037%)" offset="0.953125"/><stop stop-opacity="1" stop-color="rgb(100%, 36.471558%, 8.816528%)" offset="0.957031"/><stop stop-opacity="1" stop-color="rgb(100%, 36.790466%, 8.02002%)" offset="0.960938"/><stop stop-opacity="1" stop-color="rgb(100%, 37.109375%, 7.221985%)" offset="0.964844"/><stop stop-opacity="1" stop-color="rgb(100%, 37.428284%, 6.425476%)" offset="0.96875"/><stop stop-opacity="1" stop-color="rgb(100%, 37.747192%, 5.628967%)" offset="0.972656"/><stop stop-opacity="1" stop-color="rgb(100%, 38.066101%, 4.832458%)" offset="0.976562"/><stop stop-opacity="1" stop-color="rgb(100%, 38.38501%, 4.034424%)" offset="0.980469"/><stop stop-opacity="1" stop-color="rgb(100%, 38.703918%, 3.237915%)" offset="0.984375"/><stop stop-opacity="1" stop-color="rgb(100%, 39.022827%, 2.43988%)" offset="0.988281"/><stop stop-opacity="1" stop-color="rgb(100%, 39.341736%, 1.643372%)" offset="0.992188"/><stop stop-opacity="1" stop-color="rgb(100%, 39.660645%, 0.846863%)" offset="0.996094"/><stop stop-opacity="1" stop-color="rgb(100%, 39.979553%, 0.050354%)" offset="1"/></linearGradient></defs><g clip-path="url(#e6b6bea21a)"><g clip-path="url(#b8cc22a043)"><path fill="url(#78f424f0de)" d="M 29.855469 37.5 L 29.855469 352.5 L 344.855469 352.5 L 344.855469 37.5 Z M 29.855469 37.5 " fill-rule="nonzero"/></g></g><path fill="#ffffff" d="M 205.433594 173.613281 C 204.84375 173.613281 204.136719 173.496094 203.664062 173.140625 C 198.699219 170.304688 193.027344 168.652344 187.238281 168.652344 C 181.449219 168.652344 175.777344 170.1875 170.816406 173.140625 C 169.988281 173.613281 169.042969 173.851562 168.214844 173.496094 C 167.269531 173.257812 166.5625 172.667969 166.089844 171.839844 L 135.605469 119.144531 C 135.015625 118.316406 134.894531 117.371094 135.25 116.546875 C 135.605469 115.71875 136.078125 114.890625 136.90625 114.417969 C 152.148438 105.320312 169.632812 100.832031 187.238281 100.832031 C 204.960938 100.832031 222.332031 105.320312 237.574219 114.183594 C 238.398438 114.773438 239.109375 115.601562 239.226562 116.308594 C 239.464844 117.371094 239.464844 118.199219 238.871094 119.027344 L 208.507812 171.960938 C 208.035156 172.785156 207.207031 173.496094 206.378906 173.613281 C 206.144531 173.613281 205.789062 173.613281 205.433594 173.613281 Z M 187.238281 161.796875 C 193.027344 161.796875 198.699219 163.097656 204.015625 165.460938 L 231.074219 118.671875 C 217.605469 111.582031 202.480469 107.800781 187.238281 107.800781 C 171.996094 107.800781 156.875 111.582031 143.402344 118.671875 L 170.460938 165.460938 C 175.777344 162.980469 181.449219 161.796875 187.238281 161.796875 Z M 187.238281 161.796875 " fill-opacity="1" fill-rule="evenodd"/><path fill="#ffffff" d="M 235.917969 289.289062 C 235.683594 289.289062 235.328125 289.289062 234.972656 289.167969 C 234.027344 288.933594 233.320312 288.34375 232.847656 287.515625 L 202.363281 234.699219 C 201.300781 233.046875 202.007812 230.683594 203.664062 229.855469 C 213.707031 223.949219 220.085938 213.195312 220.085938 201.5 C 220.085938 199.609375 221.738281 197.953125 223.628906 197.953125 L 284.714844 197.953125 C 286.605469 197.953125 288.261719 199.609375 288.261719 201.5 C 288.261719 219.222656 283.652344 236.589844 274.792969 251.949219 C 265.929688 267.191406 253.167969 279.953125 237.925781 288.816406 C 237.101562 289.167969 236.628906 289.289062 235.917969 289.289062 Z M 210.160156 234.226562 L 237.21875 280.898438 C 250.214844 272.863281 260.847656 261.757812 268.648438 248.40625 C 276.210938 235.289062 280.582031 220.402344 281.054688 205.160156 L 226.9375 205.160156 C 225.992188 216.742188 219.730469 227.492188 210.160156 234.226562 Z M 210.160156 234.226562 " fill-opacity="1" fill-rule="evenodd"/><path fill="#ffffff" d="M 138.675781 289.289062 C 137.96875 289.289062 137.496094 289.167969 136.90625 288.816406 C 121.546875 279.953125 108.785156 267.191406 99.921875 251.832031 C 91.0625 236.589844 86.453125 219.222656 86.453125 201.5 C 86.453125 199.609375 88.105469 197.953125 90.117188 197.953125 L 151.082031 197.953125 C 153.09375 197.953125 154.746094 199.609375 154.746094 201.5 C 154.746094 213.195312 161.007812 223.949219 171.167969 229.855469 C 172.824219 230.917969 173.414062 233.046875 172.46875 234.699219 L 141.984375 287.515625 C 141.511719 288.34375 140.6875 288.933594 139.859375 289.167969 C 139.269531 289.289062 139.03125 289.289062 138.675781 289.289062 Z M 93.660156 205.160156 C 94.371094 220.402344 98.621094 235.289062 106.183594 248.40625 C 113.746094 261.519531 124.5 272.863281 137.496094 280.898438 L 164.554688 234.226562 C 155.101562 227.492188 148.839844 216.742188 147.894531 205.160156 Z M 93.660156 205.160156 " fill-opacity="1" fill-rule="evenodd"/><path fill="#ffffff" d="M 187.238281 226.074219 C 173.652344 226.074219 162.664062 215.085938 162.664062 201.5 C 162.664062 187.910156 173.652344 176.921875 187.238281 176.921875 C 200.828125 176.921875 211.816406 187.910156 211.816406 201.5 C 211.816406 215.085938 200.828125 226.074219 187.238281 226.074219 Z M 187.238281 184.128906 C 177.550781 184.128906 169.632812 192.046875 169.632812 201.734375 C 169.632812 211.304688 177.550781 219.222656 187.238281 219.222656 C 196.925781 219.222656 204.84375 211.304688 204.84375 201.734375 C 204.84375 191.808594 196.925781 184.128906 187.238281 184.128906 Z M 187.238281 184.128906 " fill-opacity="1" fill-rule="evenodd"/></svg>